<svg id="Layer_1" data-name="Layer 1" xmlns="http://www.w3.org/2000/svg" xmlns:xlink="http://www.w3.org/1999/xlink" viewBox="0 0 347.65 181.69"><defs><style>.cls-1{stroke:#9cf;stroke-miterlimit:10;stroke-width:5px;fill:url(#radial-gradient);}.cls-1,.cls-2{opacity:0.5;}.cls-3{fill:#fff;}</style><radialGradient id="radial-gradient" cx="4143.55" cy="90.84" r="661.68" gradientTransform="translate(-1588.47) scale(0.43 1)" gradientUnits="userSpaceOnUse"><stop offset="0" stop-color="#0b3d91"/><stop offset="0.99" stop-color="#082759"/></radialGradient></defs><rect class="cls-1" x="2.5" y="2.5" width="342.65" height="176.69" rx="30.39"/><g class="cls-2"><path class="cls-3" d="M117.56,109.56V72.2h-15.2l1.76-10.64h24.32v48Zm-15.2,0v-33h10.88v33Z"/><path class="cls-3" d="M135.19,75.64h10.88v25.19l3.12-8.71a5.73,5.73,0,0,0,.32-1.77V72.2H135.19V61.56h25.2V90.35a6.29,6.29,0,0,1-.4,1.77l-6.16,17.44h-7.76v8H135.19Z"/><path class="cls-3" d="M170.43,92V72.2h-3.28l1.76-10.64h12.4V92Z"/><path class="cls-3" d="M198.46,109.56V78.68a8.22,8.22,0,0,1,2.72-6.48H188.06l1.76-10.64h24.32V72.2h-4.8v37.36Z"/><path class="cls-3" d="M245.3,98.92v10.64H220.9V98.92h10.32V72.2H220.9l1.76-10.64H242.1V98.92Z"/></g></svg>