<svg id="Layer_1" data-name="Layer 1" xmlns="http://www.w3.org/2000/svg" xmlns:xlink="http://www.w3.org/1999/xlink" viewBox="0 0 347.65 181.69"><defs><style>.cls-1{stroke:#9cf;stroke-miterlimit:10;stroke-width:5px;fill:url(#radial-gradient);}.cls-1,.cls-2{opacity:0.5;}.cls-3{fill:#fff;}</style><radialGradient id="radial-gradient" cx="-2474.89" cy="90.84" r="661.68" gradientTransform="translate(1226.42) scale(0.43 1)" gradientUnits="userSpaceOnUse"><stop offset="0" stop-color="#0b3d91"/><stop offset="0.99" stop-color="#082759"/></radialGradient></defs><rect class="cls-1" x="2.5" y="2.5" width="342.65" height="176.69" rx="30.39"/><g class="cls-2"><path class="cls-3" d="M122.79,109.56V72.2h-2.48l2.08-10.64h25.92v48Zm9.6-10.65h6.32V72.2h-6.32Z"/><path class="cls-3" d="M169.67,61.56v48H158.79V72.2h-3.28l1.76-10.64Z"/><path class="cls-3" d="M180.15,92V72.2h-3.28l1.76-10.64H191V92Z"/><path class="cls-3" d="M227.34,61.56v40.56a7.19,7.19,0,0,1-2.08,5.39,7.41,7.41,0,0,1-5.43,2H200.38V72.2h-2.16L200,61.56Zm-10.88,37V72.2h-5.2V98.91h4.81A.35.35,0,0,0,216.46,98.51Z"/></g></svg>