<svg id="Layer_1" data-name="Layer 1" xmlns="http://www.w3.org/2000/svg" xmlns:xlink="http://www.w3.org/1999/xlink" viewBox="0 0 347.65 181.69"><defs><style>.cls-1{stroke:#9cf;stroke-miterlimit:10;stroke-width:5px;fill:url(#radial-gradient);}.cls-1,.cls-2{opacity:0.5;}.cls-3{fill:#fff;}</style><radialGradient id="radial-gradient" cx="3521.45" cy="90.84" r="661.68" gradientTransform="translate(-1323.88) scale(0.43 1)" gradientUnits="userSpaceOnUse"><stop offset="0" stop-color="#0b3d91"/><stop offset="0.99" stop-color="#082759"/></radialGradient></defs><rect class="cls-1" x="2.5" y="2.5" width="342.65" height="176.69" rx="30.39"/><g class="cls-2"><path class="cls-3" d="M126.31,61.56v56h-9.6V72.2h-11.6l2.08-10.64Z"/><path class="cls-3" d="M144.55,61.56V98.92h4.56V72.2h-2.72l1.76-10.64h11V98.92H163a.36.36,0,0,0,.4-.4V72.2h-2.72l1.76-10.64h11v40.56a7.8,7.8,0,0,1-1.84,5.4,6.3,6.3,0,0,1-4.88,2H134.47V72.2h-1.76l1.76-10.64Z"/><path class="cls-3" d="M182.47,109.56V72.2h-1.76l.8-10.64h11.84V65.8l2.88-4.24h1.52q6.15,0,8.84,2.64c1.78,1.76,2.68,4.69,2.68,8.8v36.56H195.83V98.92h2.56V72.6a.35.35,0,0,0-.4-.4h-4.64v37.36Z"/><path class="cls-3" d="M231.66,109.56V72.2h-15.2l1.76-10.64h24.32v48Zm-15.2,0v-33h10.89v33Z"/></g></svg>