<svg preserveAspectRatio = "none" id="Layer_1" data-name="Layer 1" xmlns="http://www.w3.org/2000/svg" xmlns:xlink="http://www.w3.org/1999/xlink" viewBox="0 0 810.65 181.69"><defs><style>.cls-1{stroke:lime;stroke-miterlimit:10;stroke-width:5px;fill:url(#radial-gradient);}.cls-2{fill:lime;}</style><radialGradient id="radial-gradient" cx="405.32" cy="90.84" r="661.68" gradientUnits="userSpaceOnUse"><stop offset="0" stop-color="#0b3d91"/><stop offset="0.99" stop-color="#082759"/></radialGradient></defs><rect class="cls-1" x="2.5" y="2.5" width="805.65" height="176.69" rx="46.6"/><path class="cls-2" d="M670.77,98.71a41.46,41.46,0,0,0,5.6,6.63,78.34,78.34,0,0,0,6.47,5.73c2.22,1.84,4.53,3.57,6.88,5.24s4.71,3.35,7.11,4.85l-2.8.74a116.94,116.94,0,0,1,30.11-39.76A114.54,114.54,0,0,1,744.79,68a105.13,105.13,0,0,1,23.13-9.09,170.36,170.36,0,0,0-21.54,11.79,146.17,146.17,0,0,0-19.22,14.84,140.28,140.28,0,0,0-16.43,17.77,147.51,147.51,0,0,0-13.25,20.31l-1.08,2-1.72-1.25c-2.43-1.77-4.71-3.59-7-5.49s-4.42-3.91-6.51-6a70.84,70.84,0,0,1-5.87-6.62A33.68,33.68,0,0,1,670.77,98.71Z"/></svg>