<svg id="Layer_1" data-name="Layer 1" xmlns="http://www.w3.org/2000/svg" xmlns:xlink="http://www.w3.org/1999/xlink" viewBox="0 0 968.88 649.21"><defs><style>.cls-1,.cls-17,.cls-18,.cls-19,.cls-20{fill:none;}.cls-2{fill:url(#linear-gradient);}.cls-3{fill:url(#linear-gradient-2);}.cls-4{fill:url(#linear-gradient-3);}.cls-5{fill:url(#linear-gradient-4);}.cls-6{fill:url(#linear-gradient-5);}.cls-7{fill:url(#linear-gradient-6);}.cls-8{fill:url(#linear-gradient-7);}.cls-9{clip-path:url(#clip-path);}.cls-10{fill:url(#linear-gradient-8);}.cls-11,.cls-13,.cls-15{fill:#09072d;}.cls-11,.cls-13,.cls-15,.cls-17,.cls-18,.cls-19,.cls-20{stroke-miterlimit:10;}.cls-11{stroke-width:3.11px;stroke:url(#linear-gradient-9);}.cls-12,.cls-14,.cls-16{opacity:0.72;}.cls-12{fill:url(#radial-gradient);}.cls-13,.cls-15{stroke-width:1.38px;}.cls-13{stroke:url(#linear-gradient-10);}.cls-14{fill:url(#radial-gradient-2);}.cls-15{stroke:url(#linear-gradient-11);}.cls-16{fill:url(#radial-gradient-3);}.cls-17,.cls-18,.cls-19,.cls-20{stroke-width:2px;}.cls-17{stroke:url(#linear-gradient-12);}.cls-18{stroke-dasharray:13.23 13.23 13.23 13.23;stroke:url(#linear-gradient-13);}.cls-19{stroke-dasharray:13.23 13.23 13.23 13.23 13.23 13.23;stroke:url(#linear-gradient-14);}.cls-20{stroke:url(#linear-gradient-15);}</style><linearGradient id="linear-gradient" x1="4453.72" y1="-1907.98" x2="4485.15" y2="-1964.96" gradientTransform="translate(-3812.95 -1517.68) rotate(43.18)" gradientUnits="userSpaceOnUse"><stop offset="0.08" stop-color="#900"/><stop offset="1" stop-color="#4c0606"/></linearGradient><linearGradient id="linear-gradient-2" x1="4586.82" y1="-1904.97" x2="4558.21" y2="-1975.33" xlink:href="#linear-gradient"/><linearGradient id="linear-gradient-3" x1="4523.61" y1="-1774.09" x2="4523.61" y2="-1935.1" gradientTransform="translate(-3812.95 -1517.68) rotate(43.18)" gradientUnits="userSpaceOnUse"><stop offset="0.08" stop-color="#f2c819"/><stop offset="1" stop-color="#bc3b02"/></linearGradient><linearGradient id="linear-gradient-4" x1="4522.64" y1="-1827.48" x2="4522.64" y2="-1930.07" gradientTransform="translate(-3812.95 -1517.68) rotate(43.18)" gradientUnits="userSpaceOnUse"><stop offset="0.18" stop-color="#edd25f"/><stop offset="1" stop-color="#e86a15"/></linearGradient><linearGradient id="linear-gradient-5" x1="4522.63" y1="-1861.21" x2="4522.63" y2="-1934.02" gradientTransform="translate(-3812.95 -1517.68) rotate(43.18)" gradientUnits="userSpaceOnUse"><stop offset="0.31" stop-color="#efdc81"/><stop offset="1" stop-color="#ea7424"/></linearGradient><linearGradient id="linear-gradient-6" x1="4468.1" y1="-2023.89" x2="4571.34" y2="-2023.89" gradientTransform="translate(-3812.95 -1517.68) rotate(43.18)" gradientUnits="userSpaceOnUse"><stop offset="0.01" stop-color="#f2f2f2"/><stop offset="0.18" stop-color="#e6e6e6"/><stop offset="0.76" stop-color="#8599ba"/><stop offset="0.93" stop-color="#51607a"/><stop offset="1" stop-color="#2e3e59"/></linearGradient><linearGradient id="linear-gradient-7" x1="4498.66" y1="-1926.75" x2="4549.06" y2="-1926.75" gradientTransform="translate(-3812.95 -1517.68) rotate(43.18)" gradientUnits="userSpaceOnUse"><stop offset="0" stop-color="#4c0606"/><stop offset="0.02" stop-color="#4c0606"/><stop offset="0.46" stop-color="#900"/><stop offset="1" stop-color="#4c0606"/></linearGradient><clipPath id="clip-path"><circle class="cls-1" cx="930.71" cy="38.17" r="38.17"/></clipPath><linearGradient id="linear-gradient-8" x1="4476.73" y1="-2024.6" x2="4570.84" y2="-2024.6" gradientTransform="translate(-3812.95 -1517.68) rotate(43.18)" gradientUnits="userSpaceOnUse"><stop offset="0.01" stop-color="#900"/><stop offset="0.18" stop-color="#900"/><stop offset="0.76" stop-color="#4c0606"/><stop offset="1" stop-color="#4c0606"/></linearGradient><linearGradient id="linear-gradient-9" x1="4500.35" y1="-2004.77" x2="4547.37" y2="-2004.77" xlink:href="#linear-gradient"/><radialGradient id="radial-gradient" cx="4524.8" cy="-1999.46" r="35.46" gradientTransform="translate(-3812.95 -1517.68) rotate(43.18)" gradientUnits="userSpaceOnUse"><stop offset="0.31" stop-color="#09072d"/><stop offset="1" stop-color="#f2f2f2"/></radialGradient><linearGradient id="linear-gradient-10" x1="4512.73" y1="-2045.24" x2="4534.99" y2="-2045.24" xlink:href="#linear-gradient"/><radialGradient id="radial-gradient-2" cx="4524.3" cy="-2042.72" r="16.86" xlink:href="#radial-gradient"/><linearGradient id="linear-gradient-11" x1="4512.73" y1="-1964.29" x2="4534.99" y2="-1964.29" xlink:href="#linear-gradient"/><radialGradient id="radial-gradient-3" cx="4524.3" cy="-1961.77" r="16.86" xlink:href="#radial-gradient"/><linearGradient id="linear-gradient-12" y1="283.39" x2="703.99" y2="283.39" gradientUnits="userSpaceOnUse"><stop offset="0.01" stop-color="#f2f2f2"/><stop offset="0.18" stop-color="#e6e6e6"/><stop offset="0.76" stop-color="#8599ba"/><stop offset="0.93" stop-color="#51607a"/><stop offset="1" stop-color="#354966"/></linearGradient><linearGradient id="linear-gradient-13" x1="0" y1="307.42" x2="703.99" y2="307.42" xlink:href="#linear-gradient-12"/><linearGradient id="linear-gradient-14" x1="0" y1="329.09" x2="703.99" y2="329.09" xlink:href="#linear-gradient-12"/><linearGradient id="linear-gradient-15" x1="0" y1="646.03" x2="703.99" y2="646.03" xlink:href="#linear-gradient-12"/></defs><path class="cls-2" d="M810.63,101a62.81,62.81,0,0,0-32.36,9.54c-7.33,4.68-11.87,9.9-16.12,14.86a106.9,106.9,0,0,0-17.91,29.54l50-15.9a145.35,145.35,0,0,1,7.13-20.22C806.54,106.76,810.63,101,810.63,101Z"/><path class="cls-3" d="M874.41,161.08A62.82,62.82,0,0,1,867.13,194c-4.16,7.64-9,12.53-13.7,17.11a107.09,107.09,0,0,1-28.23,19.92q6.19-25.5,12.4-51a206.13,206.13,0,0,0,19-8.63C863.21,168,869.15,164.49,874.41,161.08Z"/><path class="cls-4" d="M794,243.3c10.68-13.51,14.7-27,18.84-41.37,1.16-4,2.72-9.91,4.19-17.17a40.45,40.45,0,0,1-25.76-24c-7.08,1.9-12.79,3.82-16.7,5.22-14.14,5.07-27.3,9.93-40.1,21.44a44,44,0,0,0-5.37,5.33C717.17,207.21,716,224.51,716,224.51a27.57,27.57,0,0,1,10.16-10.83c4.09-2.44,11.89-3.37,11.89-3.37s-15.76,16-22.18,39.52a77.81,77.81,0,0,0-2.2,19.38,64.52,64.52,0,0,0,19.21-3.42c23-7.9,38-24.65,38-24.65s-.43,7.85-2.61,12.09a27.6,27.6,0,0,1-10.16,10.82s17.19-2.27,30.84-15A45.9,45.9,0,0,0,794,243.3Z"/><path class="cls-5" d="M792,163a67.33,67.33,0,0,0-22.52,16.94c-15.94,18.48-16.54,40.14-16.47,46.69,7.87-.89,27.47-4.23,44.51-20A75.92,75.92,0,0,0,814.27,184,44.06,44.06,0,0,1,792,163Z"/><path class="cls-6" d="M795.56,168.83a49.11,49.11,0,0,0-16.45,11.41c-11.9,12.61-13.3,27.84-13.54,32.73a59.62,59.62,0,0,0,31.11-15.92,57.39,57.39,0,0,0,11.5-16.25,41,41,0,0,1-7.29-5.64A40.5,40.5,0,0,1,795.56,168.83Z"/><path class="cls-7" d="M903.07,135.33c-25.09,34-81.38,50.27-81.38,50.27a36.06,36.06,0,0,1-31.3-27.79,147.58,147.58,0,0,1,7.48-30.19c6.24-17.24,17.48-38.74,37.49-55.83C872,39.36,915,30.46,940.38,27.72,939.19,53.43,932.89,96.67,903.07,135.33Z"/><path class="cls-8" d="M789,159.66c.89,9,6.94,14.82,10,17.83s10.86,10.49,21.25,10c.69,0,7.29-2.4,7.29-2.4a66.48,66.48,0,0,1-22.4-13.37A64.89,64.89,0,0,1,790.42,151S788.67,156.84,789,159.66Z"/><g class="cls-9"><path class="cls-10" d="M903.68,134.93c-25.09,34-81.38,50.27-81.38,50.27A36,36,0,0,1,791,157.41a147,147,0,0,1,7.47-30.2C804.72,110,816,88.47,836,71.39,872.63,39,915.6,30.06,941,27.32,939.8,53,933.5,96.27,903.68,134.93Z"/></g><circle class="cls-11" cx="857.75" cy="116.03" r="21.95"/><circle class="cls-12" cx="857.75" cy="116.03" r="17.68"/><circle class="cls-13" cx="885.45" cy="86.51" r="10.44"/><circle class="cls-14" cx="885.45" cy="86.51" r="8.4"/><circle class="cls-15" cx="830.05" cy="145.54" r="10.44"/><circle class="cls-16" cx="830.05" cy="145.54" r="8.4"/><path class="cls-17" d="M703.32,281.22c-1.54,1.39-3.15,2.84-4.85,4.32"/><path class="cls-18" d="M688.35,294.07a341.49,341.49,0,0,1-37.83,26.64"/><path class="cls-19" d="M644.84,324.08A324.94,324.94,0,0,1,579.41,353C538,366,437.17,396.88,355.49,337.74c-50.33-36.44-99.56-114.89-73.91-197.83C302,74,364.17,22.79,433.75,20.35c83.72-2.94,150,65.75,169.57,128.26C638.61,261.39,540,412.38,420.71,472.52,301.08,532.81,199.48,482.18,75.06,574.7A369.31,369.31,0,0,0,8.88,638.29"/><path class="cls-20" d="M4.76,643.46q-2.11,2.7-4,5.15"/></svg>