<svg preserveAspectRatio = "none" id="Layer_1" data-name="Layer 1" xmlns="http://www.w3.org/2000/svg" xmlns:xlink="http://www.w3.org/1999/xlink" viewBox="0 0 810.65 181.69"><defs><style>.cls-1{stroke:red;stroke-miterlimit:10;stroke-width:5px;fill:url(#radial-gradient);}.cls-2{fill:red;}</style><radialGradient id="radial-gradient" cx="405.32" cy="90.84" r="661.68" gradientUnits="userSpaceOnUse"><stop offset="0" stop-color="#0b3d91"/><stop offset="0.99" stop-color="#082759"/></radialGradient></defs><rect class="cls-1" x="2.5" y="2.5" width="805.65" height="176.69" rx="46.6"/><path class="cls-2" d="M697.15,53.5c7.12,5.51,13.91,11.36,20.58,17.32s13.21,12.07,19.64,18.29,12.74,12.55,18.9,19,12.24,13.08,18,20c-7.12-5.5-13.91-11.35-20.58-17.32S740.43,98.8,734,92.58,721.27,80,715.12,73.52,702.88,60.44,697.15,53.5Z"/><path class="cls-2" d="M697.15,128.19c5.73-7,11.79-13.54,18-20S727.59,95.34,734,89.11s13-12.34,19.64-18.29S767.11,59,774.23,53.5c-5.72,7-11.78,13.55-18,20s-12.48,12.82-18.9,19-13,12.34-19.64,18.28S704.27,122.68,697.15,128.19Z"/></svg>